<svg version="1.1" id="Calque_2_00000020375514323661702110000007788442205233606531_"
	 xmlns="http://www.w3.org/2000/svg" xmlns:xlink="http://www.w3.org/1999/xlink" x="0px" y="0px" viewBox="0 0 50.9 53.2"
	 style="enable-background:new 0 0 50.9 53.2;" xml:space="preserve">
<style type="text/css">
	.st0{fill:#005B7D;}
	.st1{fill:#FFFFFF;}
	.st2{fill:#E3051B;}
	.st3{fill:#06A2DC;}
</style>
<g id="Calque_1-2">
	<g>
		<rect y="0" class="st0" width="50.9" height="21"/>
		<path class="st1" d="M6.8,5.3v6.1c0,1,0.2,1.6,0.5,2.1c0.5,0.6,1.2,1,2,1s1.6-0.3,2.1-1c0.3-0.4,0.5-1.1,0.5-2.1V5.3h1.7v6.5
			c0,1.2-0.4,2.2-1.1,2.9c-0.9,0.9-1.9,1.3-3.2,1.3s-2.3-0.4-3.1-1.3c-0.8-0.8-1.1-1.8-1.1-2.9V5.3H6.8L6.8,5.3z"/>
		<path class="st1" d="M16.4,5.9v9.9h1.8V5.1C18.2,5.1,18.1,5,18,5L16.4,5.9L16.4,5.9z"/>
		<path class="st1" d="M32,15.8h-1.8V9c0-0.1-0.1-0.1-0.1-0.1l-3.7,3.7c0,0,0,0-0.1,0L22.7,9c0,0-0.1,0-0.1,0.1v6.7h-1.8V5.1
			C20.8,5,20.9,5,21,5.1l5.4,5.3c0,0,0,0,0.1,0l5.4-5.3C31.9,5,32,5,32,5.1C32,5.1,32,15.8,32,15.8z"/>
		<path class="st1" d="M45.8,15.8h-1.8V9C44.1,8.9,44,8.9,44,9l-3.7,3.7c0,0,0,0-0.1,0L36.5,9c0,0-0.1,0-0.1,0.1v6.7h-1.8V5.1
			c0-0.1,0.1-0.1,0.2-0.1l5.4,5.3c0,0,0,0,0.1,0l5.4-5.3c0.1-0.1,0.2,0,0.2,0.1L45.8,15.8L45.8,15.8z"/>
		<rect y="32.2" class="st2" width="50.9" height="21"/>
		<polygon class="st1" points="5.3,38.3 4.9,38.3 4.9,42.3 7.4,42.3 7.4,41.9 5.3,41.9 		"/>
		<polygon class="st1" points="9.8,38.2 8.3,39.8 8.3,39.8 8.3,42.3 8.7,42.3 8.7,40 9.8,38.8 10.8,40 10.8,42.3 11.2,42.3 
			11.2,39.8 9.8,38.3 		"/>
		<rect x="9" y="40.8" class="st1" width="1.4" height="0.4"/>
		<path class="st1" d="M13.8,43.7h0.9c0.1,0,0.2,0,0.4,0c0.1,0,0.2,0,0.3,0c0.1,0,0.2,0,0.3,0.1c0.1,0,0.1,0.1,0.2,0.1
			c0.1,0.1,0.2,0.3,0.3,0.5c0.1,0.2,0.1,0.5,0.1,0.8c0,0.4,0,0.7-0.1,0.9s-0.2,0.4-0.3,0.5c-0.1,0.1-0.2,0.2-0.4,0.2
			c-0.2,0-0.5,0.1-0.8,0.1h-0.8L13.8,43.7L13.8,43.7z M16.2,43.7c-0.1-0.1-0.3-0.2-0.5-0.3c-0.2,0-0.5-0.1-0.9-0.1h-1.4v4h1.2
			c0.2,0,0.4,0,0.5,0c0.1,0,0.3,0,0.4-0.1s0.2-0.1,0.3-0.1S16,47,16.1,47c0.2-0.1,0.3-0.4,0.4-0.7c0.1-0.3,0.1-0.6,0.1-1
			s0-0.8-0.1-1S16.3,43.8,16.2,43.7"/>
		<polygon class="st1" points="17.9,45.5 19.8,45.5 19.8,45.1 17.9,45.1 17.9,43.7 20.1,43.7 20.1,43.3 17.5,43.3 17.5,47.3 
			20.2,47.3 20.2,47 17.9,47 		"/>
		<polygon class="st1" points="22.7,43.3 22.3,43.3 22.3,47.3 24.9,47.3 24.9,47 22.7,47 		"/>
		<polygon class="st1" points="25.1,43.3 24.5,44.8 24.9,44.8 25.6,43.3 		"/>
		<polygon class="st1" points="31.3,46.9 31.2,46.9 29.9,43.3 29.4,43.3 30.9,47.3 31.6,47.3 33.1,43.3 32.7,43.3 		"/>
		<polygon class="st1" points="34,45.5 35.8,45.5 35.8,45.1 34,45.1 34,43.7 36.1,43.7 36.1,43.3 33.6,43.3 33.6,47.3 36.2,47.3 
			36.2,47 34,47 		"/>
		<polygon class="st1" points="40,46.9 40,46.9 37.8,43.3 37.1,43.3 37.1,47.3 37.5,47.3 37.5,43.7 37.5,43.7 39.8,47.3 40.4,47.3 
			40.4,43.3 40,43.3 		"/>
		<rect x="41.5" y="43.3" class="st1" width="0.4" height="4"/>
		<polygon class="st1" points="27.5,43.3 26.1,44.9 26.1,44.9 26.1,47.3 26.5,47.3 26.5,45.1 27.6,43.9 28.6,45.1 28.6,47.3 
			29,47.3 29,44.9 27.6,43.4 		"/>
		<rect x="26.8" y="45.8" class="st1" width="1.4" height="0.4"/>
		<polygon class="st1" points="13.8,40.5 15.5,40.5 15.5,40.2 13.8,40.2 13.8,38.7 15.9,38.7 15.9,38.3 13.4,38.3 13.4,42.3 
			13.8,42.3 		"/>
		<polygon class="st1" points="16.9,40 17.9,38.8 19,40 19,42.3 19.4,42.3 19.4,39.8 18,38.3 17.9,38.2 16.5,39.8 16.4,39.8 
			16.4,42.3 16.9,42.3 		"/>
		<rect x="17.2" y="40.8" class="st1" width="1.4" height="0.4"/>
		<path class="st1" d="M22.8,41.2c0,0.2-0.1,0.7-0.6,0.7h-1.5v-1.5h1.5c0.5,0,0.6,0.5,0.6,0.7C22.8,41,22.8,41.2,22.8,41.2z
			 M20.7,38.6h1.3c0.5,0,0.5,0.4,0.5,0.6v0.1c0,0.2,0,0.6-0.5,0.6h-1.3V38.6z M22.7,40.1c0.2-0.2,0.3-0.4,0.3-0.7v-0.1
			c0-0.6-0.3-1-0.9-1h-1.8v4h1.9c0.6,0,0.9-0.5,0.9-1.1v-0.1C23.2,40.6,23,40.3,22.7,40.1"/>
		<path class="st1" d="M26.6,39.3v0.1c0,0.2-0.1,0.7-0.6,0.7h-1.4v-1.5H26C26.5,38.6,26.6,39.1,26.6,39.3 M26.6,42.2h0.5
			c0,0-0.6-1.2-1-1.7c0.5-0.1,0.8-0.5,0.8-1.1v-0.1c0-0.7-0.4-1.1-1-1.1h-1.8v4h0.4v-1.7h1.1C25.8,40.7,26.6,42.2,26.6,42.2"/>
		<path class="st1" d="M45.5,44.4v0.1c0,0.2-0.1,0.7-0.6,0.7h-1.4v-1.5h1.4C45.4,43.7,45.5,44.2,45.5,44.4 M45.5,47.3H46
			c0,0-0.7-1.2-1-1.7c0.5-0.1,0.8-0.5,0.8-1.1v-0.1c0-0.7-0.4-1.1-1-1.1h-1.8v4h0.4v-1.7h1.1C44.7,45.7,45.5,47.3,45.5,47.3"/>
		<rect x="28.1" y="38.3" class="st1" width="0.4" height="4"/>
		<path class="st1" d="M31.2,42H31c-1.1,0-1.2-0.7-1.2-1v-1.5c0-0.3,0.1-1,1.2-1h0.2c1.1,0,1.2,0.7,1.2,1V41
			C32.4,41.2,32.3,42,31.2,42 M32.8,41v-1.5c0-0.5-0.2-0.8-0.5-1.1c-0.3-0.2-0.6-0.3-1.1-0.3H31c-0.4,0-0.8,0.1-1.1,0.3
			c-0.3,0.2-0.5,0.6-0.5,1.1V41c0,0.5,0.2,0.8,0.5,1.1c0.3,0.2,0.6,0.3,1.1,0.3h0.2c0.1,0,0.1,0,0.2,0l0.7,0.8h0.5l-0.7-0.9
			c0.2,0,0.3-0.1,0.5-0.2C32.6,41.8,32.8,41.4,32.8,41"/>
		<path class="st1" d="M35.4,42.3h-0.2c-0.9,0-1.4-0.5-1.4-1.4v-2.7h0.4V41c0,0.7,0.3,1,1,1h0.2c0.7,0,1-0.3,1-1v-2.7h0.4V41
			C36.9,41.8,36.3,42.3,35.4,42.3"/>
		<polygon class="st1" points="40.4,41.9 38.2,41.9 38.2,40.4 40,40.4 40,40 38.2,40 38.2,38.7 40.3,38.7 40.3,38.3 37.8,38.3 
			37.8,42.3 40.4,42.3 		"/>
		<rect y="21" class="st3" width="50.9" height="11.2"/>
		<rect x="16.4" y="28.7" class="st1" width="0.3" height="2.5"/>
		<path class="st1" d="M17.6,28.5v2.2c0,0.1,0,0.2,0,0.2c0,0,0.1,0,0.1,0c0,0,0.1,0,0.1,0c0,0,0.1,0,0.1,0v0.2c0,0-0.1,0-0.1,0
			c0,0-0.1,0-0.2,0c-0.1,0-0.2,0-0.3-0.1c-0.1-0.1-0.1-0.2-0.1-0.3v-2.3L17.6,28.5L17.6,28.5z"/>
		<path class="st1" d="M18.9,29.5c-0.2,0-0.3,0-0.4,0.1c-0.1,0.1-0.1,0.2-0.1,0.5h0.9V30c0-0.2,0-0.3-0.1-0.4
			C19.2,29.6,19.1,29.5,18.9,29.5 M18.2,30.3c0-0.3,0.1-0.6,0.2-0.8c0.1-0.2,0.3-0.2,0.6-0.2c0.1,0,0.2,0,0.3,0
			c0.1,0,0.1,0.1,0.2,0.1c0,0.1,0.1,0.1,0.1,0.2c0,0.1,0,0.2,0,0.3v0.2h-1.1c0,0.1,0,0.2,0,0.3c0,0.1,0,0.2,0.1,0.2
			c0,0.1,0.1,0.1,0.2,0.1c0.1,0,0.2,0,0.3,0s0.2,0,0.3,0c0.1,0,0.2,0,0.2,0l0,0.2c-0.1,0-0.1,0-0.2,0.1c-0.1,0-0.2,0-0.3,0
			c-0.1,0-0.3,0-0.4,0s-0.2-0.1-0.2-0.2s-0.1-0.2-0.1-0.3C18.2,30.6,18.2,30.5,18.2,30.3"/>
		<path class="st1" d="M20.9,30.3c0,0.2,0,0.3,0,0.4s0.1,0.2,0.1,0.2c0,0,0.1,0.1,0.1,0.1s0.1,0,0.2,0c0.1,0,0.2,0,0.2,0
			s0.1,0,0.2-0.1v-1.4c0,0-0.1,0-0.2,0c-0.1,0-0.1,0-0.2,0c-0.2,0-0.3,0-0.4,0.1c0,0-0.1,0.1-0.1,0.2S20.9,30.1,20.9,30.3
			 M21.8,28.5h0.3v2.7h-0.2l0-0.2h0c0,0,0,0,0,0c0,0,0,0,0,0s0,0,0,0s0,0,0,0c0,0-0.1,0-0.1,0c-0.1,0-0.1,0-0.2,0
			c-0.2,0-0.4,0-0.5-0.1c-0.1,0-0.1-0.1-0.1-0.3c0-0.1-0.1-0.3-0.1-0.5s0-0.4,0.1-0.5c0-0.1,0.1-0.2,0.2-0.3
			c0.1-0.1,0.1-0.1,0.2-0.1c0.1,0,0.2,0,0.3,0c0.1,0,0.2,0,0.2,0s0.1,0,0.2,0L21.8,28.5L21.8,28.5z"/>
		<path class="st1" d="M23.4,29.5c-0.2,0-0.3,0-0.4,0.1c-0.1,0.1-0.1,0.2-0.1,0.5h0.9V30c0-0.2,0-0.3-0.1-0.4
			C23.6,29.6,23.5,29.5,23.4,29.5 M22.6,30.3c0-0.3,0.1-0.6,0.2-0.8c0.1-0.2,0.3-0.2,0.6-0.2c0.1,0,0.2,0,0.3,0
			c0.1,0,0.1,0.1,0.2,0.1c0,0.1,0.1,0.1,0.1,0.2c0,0.1,0,0.2,0,0.3v0.2h-1.1c0,0.1,0,0.2,0,0.3c0,0.1,0,0.2,0.1,0.2
			c0,0.1,0.1,0.1,0.2,0.1c0.1,0,0.2,0,0.3,0s0.2,0,0.3,0c0.1,0,0.2,0,0.2,0l0,0.2c-0.1,0-0.1,0-0.2,0.1c-0.1,0-0.2,0-0.3,0
			c-0.1,0-0.3,0-0.4,0s-0.2-0.1-0.2-0.2s-0.1-0.2-0.1-0.3C22.6,30.6,22.6,30.5,22.6,30.3"/>
		<polygon class="st1" points="25.2,31.2 25.2,28.7 26.5,28.7 26.5,29 25.5,29 25.5,29.9 26.4,29.9 26.3,30.1 25.5,30.1 25.5,31.2 
					"/>
		<path class="st1" d="M27,29.4l0.1,0.2h0c0,0,0,0,0,0s0,0,0,0c0,0,0,0,0,0s0,0,0,0c0,0,0.1,0,0.1-0.1c0.1,0,0.1,0,0.2,0
			c0,0,0.1,0,0.1,0s0,0,0.1,0v0.2c0,0-0.1,0-0.1,0c0,0-0.1,0-0.1,0c-0.1,0-0.2,0-0.2,0c-0.1,0-0.1,0-0.2,0.1v1.5h-0.3v-1.9
			C26.8,29.3,27,29.3,27,29.4z"/>
		<path class="st1" d="M29,30.3c-0.1,0-0.2,0-0.2,0s-0.1,0-0.2,0c-0.1,0-0.1,0-0.2,0c0,0-0.1,0-0.1,0c0,0,0,0,0,0.1c0,0,0,0.1,0,0.2
			c0,0.1,0,0.2,0.1,0.2c0,0.1,0.1,0.1,0.3,0.1c0.1,0,0.2,0,0.3,0c0.1,0,0.1,0,0.2,0L29,30.3L29,30.3z M29,31.2L29,31h0c0,0,0,0,0,0
			c0,0,0,0,0,0s0,0,0,0s0,0,0,0c0,0-0.1,0-0.1,0.1c-0.1,0-0.2,0-0.3,0s-0.2,0-0.3,0c-0.1,0-0.1-0.1-0.2-0.1c0,0-0.1-0.1-0.1-0.1
			s0-0.1,0-0.2c0-0.1,0-0.2,0-0.3c0-0.1,0.1-0.1,0.1-0.1c0.1,0,0.2-0.1,0.3-0.1c0.1,0,0.3-0.1,0.6-0.1c0-0.1,0-0.2,0-0.3
			c0-0.1,0-0.1-0.1-0.1c0-0.1-0.2-0.1-0.3-0.1c0,0-0.1,0-0.1,0s-0.1,0-0.1,0c0,0-0.1,0-0.1,0c0,0-0.1,0-0.1,0v-0.2
			c0.1,0,0.1,0,0.3-0.1s0.2,0,0.4,0c0.2,0,0.4,0,0.5,0.1c0,0,0.1,0.1,0.1,0.2c0,0.1,0,0.2,0,0.4v1.2L29,31.2L29,31.2z"/>
		<path class="st1" d="M30.9,31.2V30c0-0.1,0-0.2,0-0.2c0-0.1,0-0.1-0.1-0.1c0,0-0.1,0-0.1-0.1c0,0-0.1,0-0.2,0c-0.1,0-0.2,0-0.3,0
			c-0.1,0-0.1,0-0.2,0v1.6h-0.3v-1.9H30l0.1,0.2h0c0,0,0,0,0,0c0,0,0,0,0,0c0,0,0,0,0,0s0,0,0,0c0,0,0.1,0,0.2-0.1s0.2,0,0.3,0
			s0.2,0,0.2,0s0.1,0,0.2,0.1c0,0,0.1,0.1,0.1,0.2s0,0.2,0,0.3v1.3L30.9,31.2L30.9,31.2z"/>
		<path class="st1" d="M32.6,29.5c-0.2,0-0.3,0-0.4,0.1c0,0-0.1,0.1-0.1,0.2c0,0.1,0,0.2,0,0.4s0,0.3,0,0.4c0,0.1,0.1,0.2,0.1,0.2
			c0,0,0.1,0.1,0.2,0.1c0.1,0,0.2,0,0.2,0s0.2,0,0.2,0c0.1,0,0.1,0,0.2,0v0.2c-0.1,0-0.1,0-0.2,0c-0.1,0-0.2,0-0.3,0
			c-0.2,0-0.4-0.1-0.5-0.2c-0.1-0.1-0.1-0.2-0.2-0.3s0-0.3,0-0.5s0-0.4,0.1-0.5c0-0.1,0.1-0.2,0.2-0.3c0.1-0.1,0.3-0.2,0.6-0.2
			c0.1,0,0.2,0,0.3,0c0.1,0,0.1,0,0.2,0v0.2c0,0-0.1,0-0.2,0C32.7,29.5,32.7,29.5,32.6,29.5"/>
		<path class="st1" d="M34,29.5c-0.2,0-0.3,0-0.3,0.1c-0.1,0.1-0.1,0.2-0.1,0.5h0.9V30c0-0.2,0-0.3-0.1-0.4S34.1,29.5,34,29.5
			 M33.2,30.3c0-0.3,0.1-0.6,0.2-0.8c0.1-0.2,0.3-0.2,0.6-0.2c0.1,0,0.2,0,0.3,0c0.1,0,0.2,0.1,0.2,0.1s0.1,0.1,0.1,0.2
			c0,0.1,0,0.2,0,0.3v0.2h-1.2c0,0.1,0,0.2,0,0.3c0,0.1,0,0.2,0.1,0.2c0,0.1,0.1,0.1,0.2,0.1c0.1,0,0.2,0,0.3,0s0.2,0,0.3,0
			c0.1,0,0.2,0,0.2,0l0,0.2c-0.1,0-0.1,0-0.2,0.1c-0.1,0-0.2,0-0.3,0c-0.1,0-0.3,0-0.3,0c-0.1,0-0.2-0.1-0.2-0.2s-0.1-0.2-0.1-0.3
			S33.2,30.5,33.2,30.3"/>
		<path class="st1" d="M10.2,23.9c0-0.1,0-0.3-0.1-0.4c0-0.1-0.1-0.1-0.1-0.2c0,0-0.1-0.1-0.2-0.1c-0.1,0-0.2,0-0.3,0H9v1.4h0.4
			c0.1,0,0.2,0,0.3,0s0.1,0,0.2-0.1c0.1,0,0.1-0.1,0.2-0.2C10.2,24.2,10.2,24.1,10.2,23.9 M9,25v1.3H8.7V23h1c0.2,0,0.3,0,0.4,0
			s0.2,0.1,0.2,0.1c0.1,0.1,0.1,0.1,0.2,0.3c0.1,0.1,0.1,0.3,0.1,0.5s0,0.4-0.1,0.5c-0.1,0.1-0.1,0.3-0.2,0.3
			c-0.1,0.1-0.2,0.1-0.3,0.1c-0.1,0-0.3,0-0.5,0L9,25L9,25z"/>
		<path class="st1" d="M12.9,22.7h-0.2l-0.3-0.3L12,22.7h-0.2l0.5-0.5h0.2L12.9,22.7L12.9,22.7z M12.2,26c0.2,0,0.3,0,0.4-0.1
			c0.1,0,0.2-0.1,0.3-0.2c0.1-0.1,0.1-0.2,0.2-0.4c0.1-0.2,0.1-0.4,0.1-0.7c0-0.3,0-0.5-0.1-0.7c0-0.2-0.1-0.3-0.2-0.4
			c-0.1-0.1-0.1-0.1-0.3-0.2c-0.1,0-0.2,0-0.4,0c-0.3,0-0.5,0.1-0.6,0.2c-0.1,0.1-0.1,0.2-0.2,0.4c-0.1,0.2-0.1,0.4-0.1,0.8
			c0,0.3,0,0.5,0.1,0.7s0.1,0.3,0.2,0.4c0.1,0.1,0.1,0.1,0.3,0.2C12,25.9,12.1,26,12.2,26 M12.3,23c0.2,0,0.4,0,0.6,0.1
			c0.1,0.1,0.3,0.1,0.4,0.2s0.2,0.3,0.2,0.5c0.1,0.2,0.1,0.5,0.1,0.8c0,0.3,0,0.6-0.1,0.8c-0.1,0.2-0.2,0.4-0.3,0.5
			c-0.1,0.1-0.2,0.2-0.4,0.2c-0.2,0-0.3,0.1-0.5,0.1c-0.2,0-0.4,0-0.5-0.1s-0.3-0.1-0.3-0.2c0,0-0.1-0.1-0.1-0.2s-0.1-0.2-0.1-0.3
			c0-0.1-0.1-0.2-0.1-0.4c0-0.1,0-0.3,0-0.5c0-0.4,0-0.7,0.1-0.9c0.1-0.2,0.2-0.4,0.3-0.5c0.1-0.1,0.2-0.2,0.4-0.2
			C12,23,12.1,23,12.3,23"/>
		<polygon class="st1" points="14.6,25.9 15.9,25.9 15.8,26.2 14.2,26.2 14.2,23 14.6,23 		"/>
		<polygon class="st1" points="18.1,26.2 16.4,26.2 16.4,23 18.1,23 18,23.3 16.7,23.3 16.7,24.4 17.9,24.4 17.8,24.7 16.7,24.7 
			16.7,25.9 18.2,25.9 		"/>
		<polygon class="st1" points="19.6,26.2 19.6,23 21.3,23 21.2,23.3 19.9,23.3 19.9,24.5 21.1,24.5 21,24.8 19.9,24.8 19.9,26.2 		
			"/>
		<path class="st1" d="M22.7,26c0.2,0,0.3,0,0.4-0.1c0.1,0,0.2-0.1,0.3-0.2c0.1-0.1,0.1-0.2,0.2-0.4c0-0.2,0.1-0.4,0.1-0.7
			c0-0.3,0-0.5,0-0.7c0-0.2-0.1-0.3-0.2-0.4c-0.1-0.1-0.1-0.1-0.3-0.2s-0.2,0-0.4,0c-0.3,0-0.5,0.1-0.6,0.2
			c-0.1,0.1-0.1,0.2-0.2,0.4c0,0.2-0.1,0.4-0.1,0.8c0,0.3,0,0.5,0.1,0.7c0,0.2,0.1,0.3,0.2,0.4c0.1,0.1,0.1,0.1,0.3,0.2
			C22.5,25.9,22.6,25.9,22.7,26 M22.9,23c0.2,0,0.4,0,0.5,0.1c0.1,0.1,0.3,0.1,0.4,0.2s0.2,0.3,0.2,0.5c0,0.2,0.1,0.5,0.1,0.8
			c0,0.3,0,0.6-0.1,0.8s-0.2,0.4-0.3,0.5c-0.1,0.1-0.2,0.2-0.4,0.2c-0.2,0-0.3,0.1-0.5,0.1c-0.2,0-0.4,0-0.5-0.1
			c-0.1-0.1-0.3-0.1-0.3-0.2c0,0-0.1-0.1-0.1-0.2s-0.1-0.2-0.1-0.3s0-0.2-0.1-0.4c0-0.1,0-0.3,0-0.5c0-0.4,0-0.7,0.1-0.9
			s0.2-0.4,0.3-0.5c0.1-0.1,0.2-0.2,0.4-0.2C22.5,23,22.6,22.9,22.9,23"/>
		<path class="st1" d="M25.1,24.6h0.5c0.1,0,0.2,0,0.3,0s0.1,0,0.2,0c0.1,0,0.1-0.1,0.2-0.2c0-0.1,0.1-0.2,0.1-0.4
			c0-0.1,0-0.2,0-0.3s-0.1-0.1-0.1-0.2c0,0,0,0-0.1,0c0,0-0.1,0-0.1,0s-0.1,0-0.1,0c-0.1,0-0.1,0-0.2,0h-0.5L25.1,24.6L25.1,24.6z
			 M25.6,23c0.2,0,0.4,0,0.5,0c0.1,0,0.2,0.1,0.3,0.1c0.1,0.1,0.1,0.1,0.2,0.2c0,0.1,0.1,0.2,0.1,0.4s0,0.3-0.1,0.4
			s-0.1,0.2-0.1,0.3c0,0-0.1,0.1-0.2,0.1c-0.1,0-0.1,0.1-0.2,0.1l0,0c0,0,0.1,0.1,0.1,0.1s0.1,0.1,0.1,0.1c0,0,0,0.1,0.1,0.2
			s0.1,0.2,0.1,0.3c0,0.1,0.1,0.2,0.1,0.4c0,0.1,0.1,0.3,0.2,0.5h-0.4c-0.1-0.2-0.1-0.4-0.2-0.5c-0.1-0.1-0.1-0.3-0.1-0.4
			c0-0.1-0.1-0.2-0.1-0.2S25.9,25,25.8,25c-0.1,0-0.2-0.1-0.4-0.1h-0.3v1.4h-0.4V23L25.6,23L25.6,23z"/>
		<polygon class="st1" points="29.8,26.2 29.8,23.4 29.8,23.4 28.9,25.8 28.5,25.8 27.6,23.4 27.6,23.4 27.6,26.2 27.3,26.2 
			27.3,23 27.9,23 28.7,25.5 28.7,25.5 29.6,23 30.2,23 30.2,26.2 		"/>
		<path class="st1" d="M32,23.4h-0.1l-0.5,1.5h1L32,23.4z M32.9,26.2l-0.3-1.1h-1.2L31,26.2h-0.4l1-3.2h0.6l1,3.2H32.9z"/>
		<polygon class="st1" points="35.2,23.3 34.3,23.3 34.3,26.2 34,26.2 34,23.3 33.1,23.3 33.1,23 35.3,23 		"/>
		<rect x="35.7" y="23" class="st1" width="0.3" height="3.2"/>
		<path class="st1" d="M38,26c0.2,0,0.3,0,0.4-0.1c0.1,0,0.2-0.1,0.3-0.2c0.1-0.1,0.1-0.2,0.2-0.4s0.1-0.4,0.1-0.7
			c0-0.3,0-0.5,0-0.7c0-0.2-0.1-0.3-0.2-0.4c-0.1-0.1-0.2-0.1-0.3-0.2c-0.1,0-0.2,0-0.4,0c-0.3,0-0.5,0.1-0.7,0.2
			c-0.1,0.1-0.1,0.2-0.2,0.4s-0.1,0.4-0.1,0.8c0,0.3,0,0.5,0.1,0.7s0.1,0.3,0.2,0.4c0.1,0.1,0.2,0.1,0.3,0.2
			C37.8,25.9,37.9,25.9,38,26 M38.1,23c0.2,0,0.4,0,0.5,0.1c0.1,0.1,0.3,0.1,0.3,0.2s0.2,0.3,0.2,0.5c0,0.2,0.1,0.5,0.1,0.8
			c0,0.3,0,0.6-0.1,0.8s-0.2,0.4-0.3,0.5c-0.1,0.1-0.2,0.2-0.4,0.2s-0.3,0.1-0.5,0.1c-0.2,0-0.4,0-0.5-0.1s-0.3-0.1-0.3-0.2
			c0,0-0.1-0.1-0.1-0.2c0-0.1-0.1-0.2-0.1-0.3s0-0.2-0.1-0.4c0-0.1,0-0.3,0-0.5c0-0.4,0-0.7,0.1-0.9s0.2-0.4,0.3-0.5
			c0.1-0.1,0.2-0.2,0.4-0.2C37.7,23,37.9,22.9,38.1,23"/>
		<polygon class="st1" points="41.7,26.2 40.3,23.4 40.3,23.4 40.3,26.2 40,26.2 40,23 40.5,23 41.9,25.9 41.9,25.9 41.9,23 
			42.2,23 42.2,26.2 		"/>
	</g>
</g>
</svg>
